<mxfile host="app.diagrams.net" modified="2024-07-04T13:17:44.993Z" agent="Mozilla/5.0 (Windows NT 10.0; Win64; x64) AppleWebKit/537.36 (KHTML, like Gecko) Chrome/126.0.0.0 Safari/537.36" etag="r1MXL3zcyaiiNgrZNU-Y" version="24.3.1" type="github">
  <diagram name="Page-1" id="VWDPrULZIb1uMpjZEySR">
    <mxGraphModel dx="1050" dy="562" grid="0" gridSize="10" guides="1" tooltips="1" connect="1" arrows="1" fold="1" page="1" pageScale="1" pageWidth="850" pageHeight="1100" math="0" shadow="0">
      <root>
        <mxCell id="0" />
        <mxCell id="1" parent="0" />
        <mxCell id="P-gDasTkgWksPS3c3k-g-1" value="&lt;b&gt;ESP8684-WROOM-05&lt;/b&gt;" style="rounded=0;whiteSpace=wrap;html=1;fillColor=#dae8fc;strokeColor=#6c8ebf;" vertex="1" parent="1">
          <mxGeometry x="320" y="160" width="170" height="230" as="geometry" />
        </mxCell>
        <mxCell id="P-gDasTkgWksPS3c3k-g-4" value="" style="ellipse;whiteSpace=wrap;html=1;aspect=fixed;strokeColor=#36393d;fillColor=#000000;" vertex="1" parent="1">
          <mxGeometry x="330" y="170" width="20" height="20" as="geometry" />
        </mxCell>
        <mxCell id="P-gDasTkgWksPS3c3k-g-5" value="" style="ellipse;whiteSpace=wrap;html=1;aspect=fixed;strokeColor=default;fillColor=#000000;" vertex="1" parent="1">
          <mxGeometry x="450" y="170" width="20" height="20" as="geometry" />
        </mxCell>
        <mxCell id="P-gDasTkgWksPS3c3k-g-6" value="Boot" style="text;html=1;align=center;verticalAlign=middle;whiteSpace=wrap;rounded=0;" vertex="1" parent="1">
          <mxGeometry x="302.5" y="193" width="75" height="20" as="geometry" />
        </mxCell>
        <mxCell id="P-gDasTkgWksPS3c3k-g-7" value="RST" style="text;html=1;align=center;verticalAlign=middle;whiteSpace=wrap;rounded=0;" vertex="1" parent="1">
          <mxGeometry x="424.5" y="193" width="75" height="20" as="geometry" />
        </mxCell>
        <mxCell id="P-gDasTkgWksPS3c3k-g-11" value="&lt;b&gt;APM8S007F4UA&lt;/b&gt;" style="rounded=0;whiteSpace=wrap;html=1;fillColor=#f8cecc;strokeColor=#b85450;" vertex="1" parent="1">
          <mxGeometry x="320" y="450" width="170" height="230" as="geometry" />
        </mxCell>
        <mxCell id="P-gDasTkgWksPS3c3k-g-15" value="" style="endArrow=none;html=1;rounded=0;fillColor=#d5e8d4;strokeColor=#82b366;" edge="1" parent="1">
          <mxGeometry width="50" height="50" relative="1" as="geometry">
            <mxPoint x="385" y="451" as="sourcePoint" />
            <mxPoint x="385" y="391" as="targetPoint" />
          </mxGeometry>
        </mxCell>
        <mxCell id="P-gDasTkgWksPS3c3k-g-17" value="" style="endArrow=none;html=1;rounded=0;fillColor=#d5e8d4;strokeColor=#82b366;" edge="1" parent="1">
          <mxGeometry width="50" height="50" relative="1" as="geometry">
            <mxPoint x="428" y="452" as="sourcePoint" />
            <mxPoint x="428" y="392" as="targetPoint" />
          </mxGeometry>
        </mxCell>
        <mxCell id="P-gDasTkgWksPS3c3k-g-18" value="VCC" style="text;html=1;align=center;verticalAlign=middle;whiteSpace=wrap;rounded=0;" vertex="1" parent="1">
          <mxGeometry x="340" y="400" width="60" height="30" as="geometry" />
        </mxCell>
        <mxCell id="P-gDasTkgWksPS3c3k-g-19" value="GND" style="text;html=1;align=center;verticalAlign=middle;whiteSpace=wrap;rounded=0;" vertex="1" parent="1">
          <mxGeometry x="420" y="400" width="60" height="30" as="geometry" />
        </mxCell>
        <mxCell id="P-gDasTkgWksPS3c3k-g-20" value="Rx" style="text;html=1;align=center;verticalAlign=middle;resizable=0;points=[];autosize=1;strokeColor=none;fillColor=none;" vertex="1" parent="1">
          <mxGeometry x="490" y="248" width="40" height="30" as="geometry" />
        </mxCell>
        <mxCell id="P-gDasTkgWksPS3c3k-g-21" value="Tx" style="text;html=1;align=center;verticalAlign=middle;resizable=0;points=[];autosize=1;strokeColor=none;fillColor=none;" vertex="1" parent="1">
          <mxGeometry x="270" y="328" width="40" height="30" as="geometry" />
        </mxCell>
        <mxCell id="P-gDasTkgWksPS3c3k-g-22" value="Tx" style="text;html=1;align=center;verticalAlign=middle;resizable=0;points=[];autosize=1;strokeColor=none;fillColor=none;" vertex="1" parent="1">
          <mxGeometry x="520" y="488" width="40" height="30" as="geometry" />
        </mxCell>
        <mxCell id="P-gDasTkgWksPS3c3k-g-23" value="Rx" style="text;html=1;align=center;verticalAlign=middle;resizable=0;points=[];autosize=1;strokeColor=none;fillColor=none;" vertex="1" parent="1">
          <mxGeometry x="250" y="598" width="40" height="30" as="geometry" />
        </mxCell>
        <mxCell id="P-gDasTkgWksPS3c3k-g-26" value="" style="endArrow=none;html=1;rounded=0;entryX=1.03;entryY=0.713;entryDx=0;entryDy=0;entryPerimeter=0;fillColor=#f8cecc;strokeColor=#b85450;" edge="1" parent="1">
          <mxGeometry width="50" height="50" relative="1" as="geometry">
            <mxPoint x="490" y="517" as="sourcePoint" />
            <mxPoint x="561.2" y="516.3900000000001" as="targetPoint" />
          </mxGeometry>
        </mxCell>
        <mxCell id="P-gDasTkgWksPS3c3k-g-27" value="" style="endArrow=none;html=1;rounded=0;exitX=1;exitY=0.522;exitDx=0;exitDy=0;exitPerimeter=0;fillColor=#dae8fc;strokeColor=#6c8ebf;" edge="1" parent="1" source="P-gDasTkgWksPS3c3k-g-1">
          <mxGeometry width="50" height="50" relative="1" as="geometry">
            <mxPoint x="490" y="274" as="sourcePoint" />
            <mxPoint x="561" y="280" as="targetPoint" />
          </mxGeometry>
        </mxCell>
        <mxCell id="P-gDasTkgWksPS3c3k-g-28" value="" style="endArrow=none;html=1;rounded=0;fillColor=#d5e8d4;strokeColor=#82b366;" edge="1" parent="1">
          <mxGeometry width="50" height="50" relative="1" as="geometry">
            <mxPoint x="560" y="517" as="sourcePoint" />
            <mxPoint x="560" y="277" as="targetPoint" />
          </mxGeometry>
        </mxCell>
        <mxCell id="P-gDasTkgWksPS3c3k-g-29" value="" style="endArrow=none;html=1;rounded=0;exitX=1;exitY=0.522;exitDx=0;exitDy=0;exitPerimeter=0;fillColor=#dae8fc;strokeColor=#6c8ebf;" edge="1" parent="1">
          <mxGeometry width="50" height="50" relative="1" as="geometry">
            <mxPoint x="248" y="356" as="sourcePoint" />
            <mxPoint x="319" y="356" as="targetPoint" />
          </mxGeometry>
        </mxCell>
        <mxCell id="P-gDasTkgWksPS3c3k-g-30" value="" style="endArrow=none;html=1;rounded=0;exitX=1;exitY=0.522;exitDx=0;exitDy=0;exitPerimeter=0;fillColor=#f8cecc;strokeColor=#b85450;" edge="1" parent="1">
          <mxGeometry width="50" height="50" relative="1" as="geometry">
            <mxPoint x="248" y="623" as="sourcePoint" />
            <mxPoint x="319" y="623" as="targetPoint" />
          </mxGeometry>
        </mxCell>
        <mxCell id="P-gDasTkgWksPS3c3k-g-31" value="" style="endArrow=none;html=1;rounded=0;exitX=-0.08;exitY=0.753;exitDx=0;exitDy=0;exitPerimeter=0;fillColor=#d5e8d4;strokeColor=#82b366;" edge="1" parent="1">
          <mxGeometry width="50" height="50" relative="1" as="geometry">
            <mxPoint x="246.79999999999995" y="624.5899999999999" as="sourcePoint" />
            <mxPoint x="247" y="351" as="targetPoint" />
          </mxGeometry>
        </mxCell>
      </root>
    </mxGraphModel>
  </diagram>
</mxfile>
